<svg xmlns="http://www.w3.org/2000/svg" viewBox="0 0 320 32" preserveAspectRatio="none"><path d="M0 32 L0 10.0 L4.0 13.3 L8.1 11.6 L12.7 11.8 L18.4 11.2 L25.5 7.2 L32.0 14.7 L37.4 13.3 L41.0 9.6 L47.4 10.8 L55.0 13.2 L59.7 12.5 L63.4 7.7 L67.9 13.4 L74.6 14.3 L80.4 9.6 L84.3 15.0 L89.0 11.0 L94.6 6.5 L99.0 8.3 L103.7 9.8 L107.9 13.2 L115.2 10.7 L120.8 9.5 L128.5 8.6 L132.7 10.3 L137.4 8.5 L144.8 6.0 L148.1 8.7 L151.5 14.0 L157.7 6.3 L163.7 6.2 L171.1 13.0 L178.6 11.9 L181.7 7.2 L187.8 7.1 L193.2 11.2 L200.6 7.1 L208.1 6.1 L211.1 13.2 L218.7 5.2 L222.7 13.7 L229.0 7.4 L233.1 13.9 L239.6 11.4 L242.8 6.0 L246.4 11.2 L249.6 12.9 L257.6 13.6 L262.7 7.2 L270.1 8.6 L275.1 13.0 L279.9 10.6 L284.5 11.5 L288.5 7.8 L296.5 10.7 L304.1 6.8 L307.8 9.5 L314.6 13.5 L318.6 9.0 L320 12 L320 32 Z"/></svg>
