<svg xmlns="http://www.w3.org/2000/svg" viewBox="0 0 300 300"><path d="M0.6 17L15.3 14.5L30 12.8L44.6 11.9L59 11.8L73.4 12.5L87.7 14L101.9 16.3L116 19.4L130 23.3L143.9 28.1L157.7 33.6L171.4 40L185.1 47.1L198.6 55.1L212.1 63.9L225.4 73.6L238.6 84L251.8 95.3L264.8 107.3L277.8 120.2L278.2 119.8L265.5 106.7L252.6 94.4L239.6 82.9L226.4 72.2L213.2 62.3L199.8 53.2L186.3 44.9L172.7 37.5L159 30.8L145.1 24.9L131.1 19.9L117 15.6L102.7 12.2L88.3 9.6L73.8 7.8L59.2 6.8L44.4 6.6L29.6 7.3L14.6 8.7L-0.6 11ZM23.9 10.6Q44.9 -9.7 49.5 5.7Q43.1 -19.4 23.9 10.6ZM23.9 10.6Q45.6 33.9 58.5 56Q53.5 27.9 23.9 10.6ZM38 9.5Q62.9 -11.5 69.2 6.1Q61.7 -22.6 38 9.5ZM38 9.5Q61.3 36.6 75.6 61.9Q70.3 30.1 38 9.5ZM52 9.2Q80.6 -11.9 88.5 7.8Q80.1 -24 52 9.2ZM52 9.2Q76.2 39.8 91.6 67.8Q86.3 33 52 9.2ZM65.9 9.6Q97.7 -10.7 107.3 10.8Q98.1 -23.6 65.9 9.6ZM65.9 9.6Q90.4 43.2 106.5 73.6Q101.3 36.3 65.9 9.6ZM79.7 10.7Q114.3 -8.1 125.4 15.1Q115.6 -21.5 79.7 10.7ZM79.7 10.7Q103.8 46.9 120.4 79.2Q115.4 40.1 79.7 10.7ZM93.4 12.6Q130.1 -4.2 142.6 20.3Q132.3 -17.8 93.4 12.6ZM93.4 12.6Q116.6 50.8 133.3 84.4Q128.6 44.1 93.4 12.6ZM107 15.2Q145.1 0.9 158.6 26.4Q148.1 -12.6 107 15.2ZM107 15.2Q128.8 54.7 145.4 89.1Q141.1 48.3 107 15.2ZM120.6 18.6Q159.3 7 173.5 33.2Q162.9 -6.2 120.6 18.6ZM120.6 18.6Q140.6 58.6 156.7 93.3Q152.9 52.7 120.6 18.6ZM134 22.7Q172.5 14 187.2 40.5Q176.7 1.3 134 22.7ZM134 22.7Q152 62.6 167.3 96.9Q164.2 57.1 134 22.7ZM147.3 27.6Q184.8 21.7 199.6 48Q189.5 9.7 147.3 27.6ZM147.3 27.6Q163.1 66.6 177.5 100Q174.9 61.6 147.3 27.6ZM160.5 33.2Q196.3 30 210.8 55.6Q201.3 18.9 160.5 33.2ZM160.5 33.2Q174 70.6 187.4 102.5Q185.3 66.2 160.5 33.2ZM173.6 39.5Q207.1 38.7 221 63.3Q212.1 28.6 173.6 39.5ZM173.6 39.5Q184.9 74.7 197 104.7Q195.5 70.9 173.6 39.5ZM186.6 46.6Q217.1 47.7 230.1 70.9Q222.1 38.8 186.6 46.6ZM186.6 46.6Q195.8 79 206.5 106.5Q205.5 75.7 186.6 46.6ZM199.5 54.4Q226.6 57.1 238.5 78.3Q231.4 49.4 199.5 54.4ZM199.5 54.4Q206.8 83.5 216.1 108.3Q215.4 80.8 199.5 54.4ZM212.3 62.9Q235.7 66.7 246.2 85.6Q240.1 60.1 212.3 62.9ZM212.3 62.9Q217.8 88.4 225.7 110.1Q225.4 86.2 212.3 62.9ZM225 72.2Q244.5 76.5 253.4 92.8Q248.4 71.2 225 72.2ZM225 72.2Q229 93.7 235.5 112.1Q235.4 92.1 225 72.2ZM237.6 82.2Q253.2 86.6 260.4 100.1Q256.4 82.4 237.6 82.2ZM237.6 82.2Q240.4 99.7 245.5 114.5Q245.6 98.4 237.6 82.2ZM250.2 93Q261.8 96.9 267.3 107.4Q264.4 93.8 250.2 93ZM250.2 93Q251.9 106.3 255.7 117.6Q255.8 105.4 250.2 93ZM262.6 104.5Q271.1 108.4 275.7 116.3Q273.7 105.5 262.6 104.5ZM262.6 104.5Q263.2 115 266.6 123.7Q267 114.2 262.6 104.5ZM-0.8 12.6L8.6 15.8L17.9 19.8L27.3 24.6L36.5 30.1L45.7 36.5L54.9 43.6L63.9 51.5L73 60.2L81.9 69.7L90.8 80L99.6 91L108.4 102.9L117.1 115.5L125.7 129L134.2 143.2L142.7 158.2L151.1 174L159.4 190.6L167.6 208L175.7 226.1L176.3 225.9L168.3 207.6L160.3 190.1L152.2 173.4L144 157.5L135.8 142.3L127.4 127.9L119 114.3L110.5 101.4L101.9 89.3L93.2 78L84.4 67.5L75.5 57.7L66.5 48.7L57.5 40.5L48.3 33L39 26.4L29.6 20.4L20.1 15.3L10.5 10.9L0.8 7.4ZM15.3 15.8Q41.1 9.5 50.9 27.2Q43.8 0.9 15.3 15.8ZM15.3 15.8Q21.9 44.8 31.1 69.5Q30.6 42.3 15.3 15.8ZM25.4 20.8Q55.3 16.4 67.1 37.4Q59.1 7 25.4 20.8ZM25.4 20.8Q31 54.2 40.8 82.7Q40.9 51.8 25.4 20.8ZM35.4 26.7Q68.6 24.9 82.2 48.9Q73.4 14.8 35.4 26.7ZM35.4 26.7Q39.5 63.7 49.7 95.3Q50.4 61.4 35.4 26.7ZM45.4 33.6Q80.9 34.6 95.9 61.3Q86.6 24.1 45.4 33.6ZM45.4 33.6Q47.7 73.2 58.1 107.3Q59.4 71.2 45.4 33.6ZM55.2 41.3Q92 45.2 108.1 74.1Q98.6 34.8 55.2 41.3ZM55.2 41.3Q55.7 82.6 66 118.4Q67.9 80.9 55.2 41.3ZM65 49.9Q102.2 56.7 118.9 87.2Q109.3 46.4 65 49.9ZM65 49.9Q63.7 92 73.7 128.6Q76.1 90.6 65 49.9ZM74.7 59.4Q111.2 68.8 128.1 100.2Q118.8 58.9 74.7 59.4ZM74.7 59.4Q71.8 101.3 81.3 138.1Q84.2 100.3 74.7 59.4ZM84.3 69.8Q119.4 81.4 136 112.9Q127.1 72.1 84.3 69.8ZM84.3 69.8Q80.1 110.7 88.9 146.7Q92.2 109.9 84.3 69.8ZM93.8 81.2Q126.7 94.3 142.7 125.3Q134.5 85.7 93.8 81.2ZM93.8 81.2Q88.6 120.1 96.7 154.7Q100.2 119.6 93.8 81.2ZM103.2 93.4Q133.3 107.5 148.4 137.2Q140.9 99.7 103.2 93.4ZM103.2 93.4Q97.4 129.8 104.7 162.3Q108.2 129.5 103.2 93.4ZM112.5 106.5Q139.4 121 153.2 148.8Q146.6 114.1 112.5 106.5ZM112.5 106.5Q106.4 139.7 112.9 169.6Q116.3 139.6 112.5 106.5ZM121.7 120.6Q145.1 134.7 157.4 160.1Q151.7 128.8 121.7 120.6ZM121.7 120.6Q115.7 150.1 121.3 176.8Q124.5 150.1 121.7 120.6ZM130.8 135.5Q150.5 148.8 161.1 171.1Q156.4 143.8 130.8 135.5ZM130.8 135.5Q125.2 161 129.9 184.2Q132.8 161.1 130.8 135.5ZM139.8 151.3Q155.8 163.2 164.6 182.2Q160.8 159.2 139.8 151.3ZM139.8 151.3Q134.8 172.6 138.7 192Q141.2 172.7 139.8 151.3ZM148.8 168.1Q161.1 178.1 168.1 193.5Q165.2 175 148.8 168.1ZM148.8 168.1Q144.5 184.9 147.6 200.4Q149.6 185.1 148.8 168.1ZM157.6 185.7Q166.5 193.5 171.6 205.2Q169.6 191.3 157.6 185.7ZM157.6 185.7Q154.3 198.2 156.5 209.7Q158.1 198.4 157.6 185.7ZM166.3 204.2Q172.4 210.6 176.6 219.2Q175.3 208.6 166.3 204.2ZM166.3 204.2Q163.4 213.5 165.4 222.1Q166.9 213.7 166.3 204.2ZM-2.2 6.6L0.4 15.7L3 25.2L5.6 34.9L8.1 45L10.5 55.4L12.9 66.1L15.2 77.1L17.4 88.5L19.6 100.2L21.7 112.2L23.8 124.5L25.8 137.2L27.8 150.2L29.7 163.5L31.5 177.1L33.3 191L35 205.3L36.6 219.9L38.2 234.8L39.8 250L40.2 250L38.9 234.7L37.5 219.8L36.1 205.2L34.6 190.9L33 176.9L31.4 163.2L29.7 149.9L27.9 136.9L26.1 124.2L24.3 111.8L22.3 99.7L20.3 88L18.3 76.5L16.2 65.4L14 54.6L11.8 44.1L9.5 34L7.1 24.1L4.7 14.6L2.2 5.4ZM4.1 20.8Q22.5 35.6 32.9 58.5Q28.6 31 4.1 20.8ZM4.1 20.8Q-12 41.8 -10.7 65.3Q-4.8 44.2 4.1 20.8ZM7.3 33.7Q28.1 51.7 40.1 78.6Q35.2 46.5 7.3 33.7ZM7.3 33.7Q-11.4 58 -9.9 85.3Q-3 60.8 7.3 33.7ZM10.5 47.1Q32.7 67.9 45.8 98Q40.7 62.3 10.5 47.1ZM10.5 47.1Q-10.1 73.9 -8.5 104.1Q-0.9 77 10.5 47.1ZM13.5 61.1Q36.4 84 50.1 116.4Q45 78.3 13.5 61.1ZM13.5 61.1Q-8.3 89.6 -6.5 121.5Q1.5 92.8 13.5 61.1ZM16.5 75.6Q39.1 100 53.1 133.5Q48 94.3 16.5 75.6ZM16.5 75.6Q-5.8 104.9 -3.9 137.6Q4.2 108.2 16.5 75.6ZM19.3 90.7Q41 115.7 54.8 149.4Q50 110.3 19.3 90.7ZM19.3 90.7Q-2.7 119.9 -0.8 152.4Q7.3 123.1 19.3 90.7ZM22.1 106.4Q42.2 131.2 55.3 164Q51 126.2 22.1 106.4ZM22.1 106.4Q1 134.5 2.9 165.9Q10.6 137.6 22.1 106.4ZM24.7 122.6Q42.8 146.4 54.9 177.4Q51.1 141.9 24.7 122.6ZM24.7 122.6Q5.2 149 7 178.3Q14.2 151.9 24.7 122.6ZM27.2 139.4Q42.9 161.5 53.8 189.7Q50.5 157.5 27.2 139.4ZM27.2 139.4Q9.8 163.3 11.5 189.7Q17.9 165.9 27.2 139.4ZM29.6 156.8Q42.8 176.4 52.1 201.1Q49.4 173 29.6 156.8ZM29.6 156.8Q14.6 177.7 16.1 200.6Q21.7 179.8 29.6 156.8ZM32 174.7Q42.4 191.3 50 212.1Q47.9 188.7 32 174.7ZM32 174.7Q19.6 192.1 20.9 211.2Q25.5 193.9 32 174.7ZM34.2 193.1Q42 206.4 47.9 222.8Q46.3 204.4 34.2 193.1ZM34.2 193.1Q24.6 206.9 25.7 221.8Q29.2 208.2 34.2 193.1ZM36.3 212.2Q41.6 221.9 45.8 233.7Q44.8 220.5 36.3 212.2ZM36.3 212.2Q29.5 222 30.3 232.7Q32.8 223 36.3 212.2ZM38.3 231.8Q41.4 238.7 44.6 246.8Q44.2 237.6 38.3 231.8ZM38.3 231.8Q33.3 238.5 34.2 246Q36.2 239.3 38.3 231.8Z"/></svg>
